<svg width="40" height="40" viewBox="0 0 40 40" fill="none" xmlns="http://www.w3.org/2000/svg">
<path fill-rule="evenodd" clip-rule="evenodd" d="M5 20C5 11.7162 11.7144 5 20 5C28.2838 5 35 11.7162 35 20C35 28.2838 28.2838 35 20 35C11.7144 35 5 28.2838 5 20ZM26.9528 16.2501C27.2489 15.9605 27.2543 15.4857 26.9647 15.1895C26.6751 14.8934 26.2003 14.888 25.9041 15.1776L17.6806 23.2184L14.1138 19.4817C13.8278 19.1821 13.3531 19.1711 13.0534 19.4571C12.7538 19.7431 12.7428 20.2178 13.0288 20.5174L17.1197 24.8032C17.2581 24.9482 17.4488 25.0317 17.6493 25.0352C17.8497 25.0386 18.0432 24.9617 18.1865 24.8216L26.9528 16.2501Z" fill="#FB6058"/>
</svg>
